<svg width="25" height="25" viewBox="0 0 25 25" fill="none" xmlns="http://www.w3.org/2000/svg">
<path d="M0 2C0 0.89543 0.895431 0 2 0H23C24.1046 0 25 0.895431 25 2V23C25 24.1046 24.1046 25 23 25H2C0.89543 25 0 24.1046 0 23V2Z" fill="url(#paint0_linear_3_109)"/>
<path d="M0 2C0 0.89543 0.895431 0 2 0H23C24.1046 0 25 0.895431 25 2V23C25 24.1046 24.1046 25 23 25H2C0.89543 25 0 24.1046 0 23V2Z" fill="url(#paint1_angular_3_109)" style="mix-blend-mode:difference"/>
<path d="M0 2C0 0.89543 0.895431 0 2 0H23C24.1046 0 25 0.895431 25 2V23C25 24.1046 24.1046 25 23 25H2C0.89543 25 0 24.1046 0 23V2Z" fill="url(#paint2_angular_3_109)" style="mix-blend-mode:screen"/>
<path d="M10.9339 5.53636V6.26886H9.23616V4H10.9339V4.80276H9.96378V5.53636H10.9339ZM12.6791 4.80276H13.3574V4H11.6594C11.6594 4 11.6594 4.40295 11.6594 4.80276C11.8866 5.05337 12.005 5.17334 12.3336 5.5358C12.1415 5.5358 11.6594 5.5365 11.6594 5.5365V6.26886H13.3574V5.53636L12.6791 4.80276ZM15.0856 4.80276H15.7638V4H14.0659C14.0659 4 14.0659 4.40295 14.0659 4.80276C14.293 5.05337 14.4115 5.17334 14.74 5.5358C14.5481 5.5358 14.0659 5.5365 14.0659 5.5365V6.26886H15.7638V5.53636L15.0856 4.80276ZM18 7.34716L16.9686 19.6726L12.5 21L8.03122 19.6726L7 7.34716H18ZM15.9218 9.85332H12.4959H9.00948L9.17621 11.3417H12.4959H12.6824L12.4959 11.4273L9.29755 12.897L9.40363 14.3519L12.4959 14.3629L14.1533 14.3688L14.0471 16.3087L12.4959 16.7905V16.789L12.4832 16.7929L10.985 16.3756L10.8941 15.1715H10.8892H9.49949H9.49461L9.6765 17.4961L12.4959 18.416V18.4143L12.501 18.416L15.3053 17.5129L15.6692 12.8971H12.4959H12.4881L12.4959 12.8933L15.7853 11.3417L15.9218 9.85332Z" fill="black"/>
<defs>
<linearGradient id="paint0_linear_3_109" x1="12.5" y1="0" x2="12.5" y2="25" gradientUnits="userSpaceOnUse">
<stop stop-color="#00ABE1"/>
<stop offset="0.185" stop-color="#D2D700"/>
<stop offset="0.395" stop-color="#27B872"/>
<stop offset="0.605" stop-color="#FF8AA6"/>
<stop offset="0.805" stop-color="#1AD142"/>
<stop offset="1" stop-color="#A171EE"/>
</linearGradient>
<radialGradient id="paint1_angular_3_109" cx="0" cy="0" r="1" gradientUnits="userSpaceOnUse" gradientTransform="translate(12.5 12.5) rotate(90) scale(12.5)">
<stop/>
<stop offset="0.17" stop-color="white"/>
<stop offset="0.36"/>
<stop offset="0.51" stop-color="white"/>
<stop offset="0.765"/>
<stop offset="1" stop-color="white"/>
</radialGradient>
<radialGradient id="paint2_angular_3_109" cx="0" cy="0" r="1" gradientUnits="userSpaceOnUse" gradientTransform="translate(12.5 12.5) rotate(90) scale(12.5)">
<stop/>
<stop offset="0.16" stop-color="white"/>
<stop offset="0.34"/>
<stop offset="0.515" stop-color="white"/>
<stop offset="0.765"/>
<stop offset="1" stop-color="white"/>
</radialGradient>
</defs>
</svg>
