<svg width="315" height="258" viewBox="0 0 315 258" fill="none" xmlns="http://www.w3.org/2000/svg">
<g filter="url(#filter0_d_3_62)">
<path fill-rule="evenodd" clip-rule="evenodd" d="M188.415 0C86.5652 0 4 82.5653 4 184.415C4 286.264 86.5653 368.829 188.415 368.829H197.635C299.485 368.829 382.05 286.264 382.05 184.415C382.05 82.5653 299.485 0 197.635 0H188.415ZM192.1 242C227.17 242 255.6 213.57 255.6 178.5C255.6 143.43 227.17 115 192.1 115C157.03 115 128.6 143.43 128.6 178.5C128.6 213.57 157.03 242 192.1 242Z" fill="url(#paint0_linear_3_62)"/>
<path fill-rule="evenodd" clip-rule="evenodd" d="M188.415 0C86.5652 0 4 82.5653 4 184.415C4 286.264 86.5653 368.829 188.415 368.829H197.635C299.485 368.829 382.05 286.264 382.05 184.415C382.05 82.5653 299.485 0 197.635 0H188.415ZM192.1 242C227.17 242 255.6 213.57 255.6 178.5C255.6 143.43 227.17 115 192.1 115C157.03 115 128.6 143.43 128.6 178.5C128.6 213.57 157.03 242 192.1 242Z" fill="url(#paint1_angular_3_62)" style="mix-blend-mode:difference"/>
<path fill-rule="evenodd" clip-rule="evenodd" d="M188.415 0C86.5652 0 4 82.5653 4 184.415C4 286.264 86.5653 368.829 188.415 368.829H197.635C299.485 368.829 382.05 286.264 382.05 184.415C382.05 82.5653 299.485 0 197.635 0H188.415ZM192.1 242C227.17 242 255.6 213.57 255.6 178.5C255.6 143.43 227.17 115 192.1 115C157.03 115 128.6 143.43 128.6 178.5C128.6 213.57 157.03 242 192.1 242Z" fill="url(#paint2_angular_3_62)" style="mix-blend-mode:screen"/>
</g>
<defs>
<filter id="filter0_d_3_62" x="0" y="0" width="386.05" height="376.829" filterUnits="userSpaceOnUse" color-interpolation-filters="sRGB">
<feFlood flood-opacity="0" result="BackgroundImageFix"/>
<feColorMatrix in="SourceAlpha" type="matrix" values="0 0 0 0 0 0 0 0 0 0 0 0 0 0 0 0 0 0 127 0" result="hardAlpha"/>
<feOffset dy="4"/>
<feGaussianBlur stdDeviation="2"/>
<feComposite in2="hardAlpha" operator="out"/>
<feColorMatrix type="matrix" values="0 0 0 0 0 0 0 0 0 0 0 0 0 0 0 0 0 0 0.25 0"/>
<feBlend mode="normal" in2="BackgroundImageFix" result="effect1_dropShadow_3_62"/>
<feBlend mode="normal" in="SourceGraphic" in2="effect1_dropShadow_3_62" result="shape"/>
</filter>
<linearGradient id="paint0_linear_3_62" x1="193.025" y1="0" x2="193.025" y2="368.829" gradientUnits="userSpaceOnUse">
<stop stop-color="#00ABE1"/>
<stop offset="0.185" stop-color="#D2D700"/>
<stop offset="0.395" stop-color="#27B872"/>
<stop offset="0.605" stop-color="#FF8AA6"/>
<stop offset="0.805" stop-color="#1AD142"/>
<stop offset="1" stop-color="#A171EE"/>
</linearGradient>
<radialGradient id="paint1_angular_3_62" cx="0" cy="0" r="1" gradientUnits="userSpaceOnUse" gradientTransform="translate(193.025 184.415) rotate(90) scale(184.415 189.025)">
<stop/>
<stop offset="0.17" stop-color="white"/>
<stop offset="0.36"/>
<stop offset="0.51" stop-color="white"/>
<stop offset="0.765"/>
<stop offset="1" stop-color="white"/>
</radialGradient>
<radialGradient id="paint2_angular_3_62" cx="0" cy="0" r="1" gradientUnits="userSpaceOnUse" gradientTransform="translate(193.025 184.415) rotate(90) scale(184.415 189.025)">
<stop/>
<stop offset="0.16" stop-color="white"/>
<stop offset="0.34"/>
<stop offset="0.515" stop-color="white"/>
<stop offset="0.765"/>
<stop offset="1" stop-color="white"/>
</radialGradient>
</defs>
</svg>
