<svg width="18" height="18" viewBox="0 0 18 18" fill="none" xmlns="http://www.w3.org/2000/svg">
<path d="M17.4375 14.625C17.1 14.625 16.875 14.4 16.875 14.0625V6.75C16.875 6.4125 17.1 6.1875 17.4375 6.1875C17.775 6.1875 18 6.4125 18 6.75V14.0625C18 14.4 17.775 14.625 17.4375 14.625Z" fill="white"/>
<path d="M9 11.8125C8.8875 11.8125 8.83125 11.8125 8.71875 11.7563L0.28125 7.25625C0.1125 7.14375 0 6.975 0 6.75C0 6.525 0.1125 6.35625 0.28125 6.24375L8.71875 1.74375C8.8875 1.63125 9.05625 1.63125 9.225 1.74375L17.6625 6.24375C17.8312 6.35625 17.9437 6.525 17.9437 6.75C17.9437 6.975 17.8312 7.14375 17.6625 7.25625L9.225 11.7563C9.16875 11.8125 9.1125 11.8125 9 11.8125Z" fill="white"/>
<path d="M9.7875 12.7125C9.5625 12.8813 9.28125 12.9375 9 12.9375C8.71875 12.9375 8.4375 12.8813 8.2125 12.7125L3.375 10.1813V12.375C3.375 14.1188 6.13125 15.75 9 15.75C11.8687 15.75 14.625 14.1188 14.625 12.375V10.1813L9.7875 12.7125Z" fill="white"/>
</svg>
