<svg width="14" height="14" viewBox="0 0 14 14" fill="none" xmlns="http://www.w3.org/2000/svg">
<g clip-path="url(#clip0_4_252)">
<path fill-rule="evenodd" clip-rule="evenodd" d="M1.6492 0.447437C1.8023 0.294564 1.98615 0.175975 2.18855 0.0995278C2.39095 0.0230806 2.60729 -0.00947902 2.82322 0.00400666C3.03916 0.0174923 3.24976 0.0767154 3.44108 0.177751C3.6324 0.278787 3.80006 0.419328 3.93295 0.590062L5.50357 2.60781C5.79145 2.97794 5.89295 3.46006 5.7792 3.91506L5.30057 5.83131C5.27583 5.93056 5.27717 6.03453 5.30446 6.13311C5.33175 6.23169 5.38406 6.32154 5.45632 6.39394L7.6062 8.54381C7.67868 8.61622 7.76868 8.66862 7.86743 8.69592C7.96618 8.72321 8.07032 8.72447 8.1697 8.69956L10.0851 8.22094C10.3096 8.1648 10.544 8.16043 10.7704 8.20819C10.9969 8.25593 11.2096 8.35454 11.3923 8.49656L13.4101 10.0663C14.1355 10.6307 14.202 11.7026 13.5527 12.3509L12.6479 13.2557C12.0005 13.9032 11.0327 14.1876 10.1306 13.8699C7.82161 13.0575 5.72519 11.7357 3.99682 10.0024C2.2637 8.27433 0.941857 6.17821 0.129325 3.86956C-0.187425 2.96831 0.0969496 1.99969 0.74445 1.35219L1.6492 0.447437Z" fill="white"/>
</g>
<defs>
<clipPath id="clip0_4_252">
<rect width="14" height="14" fill="white"/>
</clipPath>
</defs>
</svg>
